<?xml version="1.0" encoding="utf-8"?>
<!-- Generator: Adobe Illustrator 16.0.4, SVG Export Plug-In . SVG Version: 6.00 Build 0)  -->
<!DOCTYPE svg PUBLIC "-//W3C//DTD SVG 1.1//EN" "http://www.w3.org/Graphics/SVG/1.1/DTD/svg11.dtd">
<svg version="1.1" id="Layer_1" xmlns="http://www.w3.org/2000/svg" xmlns:xlink="http://www.w3.org/1999/xlink" x="0px" y="0px"
	 width="64px" height="64px" viewBox="0 0 64 64" enable-background="new 0 0 64 64" xml:space="preserve">
<path fill="#FFFFFF" d="M48,22.077c-1.177,0.523-2.442,0.875-3.771,1.034c1.355-0.812,2.396-2.099,2.886-3.631
	c-1.269,0.753-2.673,1.298-4.168,1.593C41.75,19.798,40.043,19,38.154,19c-3.625,0-6.564,2.938-6.564,6.562
	c0,0.516,0.057,1.018,0.17,1.499c-5.458-0.273-10.294-2.887-13.532-6.858c-0.565,0.971-0.889,2.097-0.889,3.299
	c0,2.276,1.159,4.287,2.92,5.463c-1.076-0.034-2.088-0.329-2.974-0.82c0,0.027,0,0.055,0,0.083c0,3.181,2.263,5.833,5.266,6.435
	c-0.551,0.151-1.131,0.232-1.729,0.232c-0.422,0-0.835-0.043-1.235-0.119c0.834,2.607,3.26,4.506,6.132,4.557
	c-2.246,1.762-5.078,2.811-8.153,2.811c-0.531,0-1.052-0.031-1.566-0.092C18.906,43.913,22.357,45,26.063,45
	c12.077,0,18.68-10.002,18.68-18.677c0-0.284-0.007-0.566-0.02-0.847C46.006,24.551,47.121,23.395,48,22.077z"/>
</svg>
